# Blender v2.90.1 OBJ File: ''
# www.blender.org
mtllib cone.mtl
o Cone:pCylinder2_Mesh.001
v -0.160080 -0.031626 -0.062015
v -0.126868 -0.031626 -0.115655
v -0.076521 -0.031626 -0.153675
v -0.015840 -0.031626 -0.170941
v 0.046981 -0.031626 -0.165119
v 0.103456 -0.031626 -0.136998
v 0.145959 -0.031626 -0.090374
v 0.168750 -0.031626 -0.031545
v 0.168750 -0.031626 0.031545
v 0.145959 -0.031626 0.090374
v 0.103456 -0.031626 0.136998
v 0.046981 -0.031626 0.165119
v -0.015840 -0.031626 0.170941
v -0.076521 -0.031626 0.153675
v -0.126868 -0.031626 0.115655
v -0.160080 -0.031626 0.062015
v -0.171673 -0.031626 0.000000
v -0.024221 -0.568772 -0.008898
v -0.019455 -0.568772 -0.016595
v -0.012232 -0.568772 -0.022050
v -0.003525 -0.568772 -0.024527
v 0.005489 -0.568772 -0.023692
v 0.013593 -0.568772 -0.019657
v 0.019691 -0.568772 -0.012967
v 0.022961 -0.568772 -0.004526
v 0.022961 -0.568772 0.004526
v 0.019691 -0.568772 0.012967
v 0.013593 -0.568772 0.019657
v 0.005489 -0.568772 0.023692
v -0.003525 -0.568772 0.024527
v -0.012232 -0.568772 0.022050
v -0.019455 -0.568772 0.016595
v -0.024221 -0.568772 0.008898
v -0.025884 -0.568772 0.000000
v -0.017249 -0.568772 -0.006172
v -0.013943 -0.568772 -0.011511
v -0.008932 -0.568772 -0.015295
v -0.002893 -0.568772 -0.017013
v 0.003360 -0.568772 -0.016434
v 0.008981 -0.568772 -0.013635
v 0.013211 -0.568772 -0.008995
v 0.015479 -0.568772 -0.003140
v 0.015479 -0.568772 0.003140
v 0.013211 -0.568772 0.008995
v 0.008981 -0.568772 0.013635
v 0.003360 -0.568772 0.016434
v -0.002893 -0.568772 0.017014
v -0.008932 -0.568772 0.015295
v -0.013943 -0.568772 0.011511
v -0.017249 -0.568772 0.006172
v -0.018402 -0.568772 0.000000
v -0.017249 -0.549783 -0.006172
v -0.013943 -0.549783 -0.011511
v -0.008932 -0.549783 -0.015295
v -0.002893 -0.549783 -0.017013
v 0.003360 -0.549783 -0.016434
v 0.008981 -0.549783 -0.013635
v 0.013211 -0.549783 -0.008995
v 0.015479 -0.549783 -0.003140
v 0.015479 -0.549783 0.003140
v 0.013211 -0.549783 0.008995
v 0.008981 -0.549783 0.013635
v 0.003360 -0.549783 0.016434
v -0.002893 -0.549783 0.017014
v -0.008932 -0.549783 0.015295
v -0.013943 -0.549783 0.011511
v -0.017249 -0.549783 0.006172
v -0.018402 -0.549783 0.000000
v 0.239922 -0.006736 0.119973
v 0.119973 -0.006736 0.239922
v 0.239922 -0.035941 0.119973
v 0.119973 -0.035941 0.239922
v -0.239922 -0.006736 0.119973
v -0.119973 -0.006736 0.239922
v -0.239922 -0.035941 0.119973
v -0.119973 -0.035941 0.239922
v 0.239922 -0.035941 -0.119973
v 0.119973 -0.035941 -0.239922
v 0.239922 -0.006736 -0.119973
v 0.119973 -0.006736 -0.239922
v -0.119973 -0.035941 -0.239922
v -0.239922 -0.035941 -0.119973
v -0.239922 -0.006736 -0.119973
v -0.119973 -0.006736 -0.239922
vt 0.158778 0.001992
vt 0.125737 0.392737
vt 0.120138 0.392737
vt 0.197798 0.001992
vt 0.129705 0.392737
vt 0.230960 0.002095
vt 0.284676 0.392756
vt 0.278343 0.392766
vt 0.275102 0.002026
vt 0.291233 0.392746
vt 0.320801 0.001954
vt 0.297128 0.392737
vt 0.368794 0.001992
vt 0.459019 0.392737
vt 0.454153 0.392737
vt 0.402710 0.001992
vt 0.465160 0.392737
vt 0.491400 0.001992
vt 0.445505 0.001992
vt 0.534195 0.001992
vt 0.471745 0.392737
vt 0.568111 0.001992
vt 0.477885 0.392737
vt 0.615249 0.001992
vt 0.639537 0.392737
vt 0.574166 0.001992
vt 0.660947 0.001992
vt 0.645431 0.392737
vt 0.705090 0.001992
vt 0.651989 0.392737
vt 0.029532 0.001992
vt 0.097624 0.392737
vt 0.001874 0.001992
vt 0.068552 0.001992
vt 0.101593 0.392737
vt 0.113665 0.001992
vt 0.107192 0.392737
vt 0.113665 0.392737
vt 0.249514 0.873658
vt 0.136153 0.998008
vt 0.001874 0.896605
vt 0.397531 0.770058
vt 0.377778 0.755141
vt 0.393886 0.750558
vt 0.368276 0.773623
vt 0.360799 0.775524
vt 0.363204 0.771640
vt 0.364810 0.779222
vt 0.357154 0.778277
vt 0.359554 0.783191
vt 0.352761 0.779527
vt 0.353221 0.784993
vt 0.348213 0.779105
vt 0.346664 0.784385
vt 0.344124 0.777069
vt 0.340769 0.781450
vt 0.341046 0.773693
vt 0.336332 0.776583
vt 0.339397 0.769434
vt 0.333954 0.763858
vt 0.333954 0.770443
vt 0.336332 0.757717
vt 0.339397 0.764866
vt 0.340769 0.752851
vt 0.341046 0.760607
vt 0.346664 0.749915
vt 0.344124 0.757231
vt 0.353221 0.749308
vt 0.348213 0.755195
vt 0.359554 0.751110
vt 0.352761 0.754774
vt 0.364810 0.755078
vt 0.357154 0.756024
vt 0.368276 0.760677
vt 0.360799 0.758777
vt 0.369486 0.767150
vt 0.363204 0.762660
vt 0.364043 0.767150
vt 0.421115 0.768808
vt 0.407301 0.764924
vt 0.421115 0.764924
vt 0.421115 0.771560
vt 0.407301 0.768808
vt 0.456279 0.763122
vt 0.460672 0.749308
vt 0.460672 0.763122
vt 0.451731 0.763122
vt 0.456279 0.749308
vt 0.447642 0.763122
vt 0.451731 0.749308
vt 0.441285 0.752683
vt 0.427471 0.749308
vt 0.441285 0.749308
vt 0.441285 0.756943
vt 0.427471 0.752683
vt 0.441285 0.761511
vt 0.427471 0.756943
vt 0.441285 0.765770
vt 0.427471 0.761511
vt 0.441285 0.769145
vt 0.427471 0.765770
vt 0.471901 0.749308
vt 0.467812 0.763122
vt 0.467812 0.749308
vt 0.476450 0.749308
vt 0.471901 0.763122
vt 0.480843 0.749308
vt 0.476450 0.763122
vt 0.421115 0.752061
vt 0.407301 0.749308
vt 0.421115 0.749308
vt 0.421115 0.755944
vt 0.407301 0.752061
vt 0.421115 0.760434
vt 0.407301 0.755944
vt 0.407301 0.760434
vt 0.256939 0.923855
vt 0.288200 0.749308
vt 0.288200 0.923855
vt 0.295446 0.923855
vt 0.326707 0.749308
vt 0.326707 0.923855
vt 0.711692 0.263796
vt 0.742952 0.089248
vt 0.742952 0.263796
vt 0.750199 0.263796
vt 0.781459 0.089248
vt 0.781459 0.263796
vt 0.677176 0.745553
vt 0.589920 0.658296
vt 0.938980 0.483749
vt 0.322344 0.745553
vt 0.235087 0.658296
vt 0.584148 0.483749
vt 0.750199 0.001992
vt 0.750199 0.089248
vt 0.742952 0.351052
vt 0.711692 0.351052
vt 0.781459 0.351052
vt 0.711692 0.001992
vt 0.742952 0.001992
vt 0.225455 0.001992
vt 0.361884 0.001889
vt 0.482752 0.392737
vt 0.658322 0.392737
vt 0.216920 0.789525
vt 0.241081 0.828545
vt 0.180296 0.761867
vt 0.241081 0.918771
vt 0.216920 0.957791
vt 0.180296 0.985448
vt 0.090455 0.993773
vt 0.049372 0.973317
vt 0.018453 0.939400
vt 0.001874 0.850711
vt 0.018453 0.807916
vt 0.049372 0.773999
vt 0.090455 0.753542
vt 0.136153 0.749308
vt 0.400775 0.761684
vt 0.399936 0.766174
vt 0.393886 0.772810
vt 0.389493 0.774060
vt 0.384945 0.773639
vt 0.380856 0.771603
vt 0.377778 0.768227
vt 0.376128 0.763968
vt 0.376128 0.759400
vt 0.380856 0.751765
vt 0.384945 0.749729
vt 0.389493 0.749308
vt 0.397531 0.753311
vt 0.399936 0.757194
vt 0.407301 0.771560
vt 0.447642 0.749308
vt 0.427471 0.769145
vt 0.480843 0.763122
vt 0.256939 0.749308
vt 0.295446 0.749308
vt 0.711692 0.089248
vt 0.589920 0.483749
vt 0.677176 0.396492
vt 0.851724 0.396492
vt 0.938980 0.658296
vt 0.851724 0.745553
vt 0.235087 0.483749
vt 0.322344 0.396492
vt 0.496891 0.396492
vt 0.584148 0.658296
vt 0.496891 0.745553
vt 0.781459 0.001992
vt 0.750199 0.351052
vn -0.8998 -0.2621 -0.3487
vn -0.7132 -0.2625 -0.6499
vn -0.8999 -0.2621 -0.3485
vn -0.7130 -0.2625 -0.6502
vn -0.4302 -0.2631 -0.8635
vn -0.4298 -0.2631 -0.8637
vn -0.0893 -0.2638 -0.9604
vn -0.0888 -0.2638 -0.9605
vn 0.2637 -0.2646 -0.9276
vn 0.2641 -0.2646 -0.9275
vn 0.5809 -0.2653 -0.7695
vn 0.5812 -0.2653 -0.7693
vn 0.8196 -0.2658 -0.5076
vn 0.8197 -0.2658 -0.5074
vn 0.9475 -0.2661 -0.1772
vn 0.9475 -0.2661 0.1771
vn 0.9475 -0.2661 -0.1771
vn 0.8197 -0.2658 0.5074
vn 0.9475 -0.2661 0.1772
vn 0.5812 -0.2653 0.7693
vn 0.8196 -0.2658 0.5076
vn 0.2641 -0.2646 0.9275
vn 0.5809 -0.2653 0.7695
vn -0.0888 -0.2638 0.9605
vn 0.2637 -0.2646 0.9276
vn -0.4298 -0.2631 0.8637
vn -0.0893 -0.2638 0.9604
vn -0.7130 -0.2625 0.6502
vn -0.4302 -0.2631 0.8635
vn -0.8998 -0.2621 0.3487
vn -0.7132 -0.2625 0.6499
vn -0.9651 -0.2619 -0.0000
vn -0.8999 -0.2621 0.3485
vn 0.0000 1.0000 -0.0000
vn 0.0000 -1.0000 -0.0000
vn 0.8502 -0.0000 0.5264
vn 0.6026 0.0000 0.7980
vn 0.2736 0.0000 0.9618
vn -0.0923 0.0000 0.9957
vn -0.4457 0.0000 0.8952
vn -0.7390 0.0000 0.6737
vn -0.9325 0.0000 0.3612
vn -1.0000 0.0000 0.0000
vn -0.9325 -0.0000 -0.3612
vn -0.7390 -0.0000 -0.6737
vn -0.4457 -0.0000 -0.8952
vn -0.0923 -0.0000 -0.9957
vn 0.2737 -0.0000 -0.9618
vn 0.6026 -0.0000 -0.7980
vn 0.8502 -0.0000 -0.5264
vn 0.9830 -0.0000 -0.1837
vn 0.9830 -0.0000 0.1837
vn 0.0000 0.0000 1.0000
vn 0.0000 0.0000 -1.0000
vn 1.0000 -0.0000 0.0000
vn 0.7071 -0.0000 0.7071
vn -0.7071 0.0000 0.7071
vn 0.7071 0.0000 -0.7071
vn -0.7071 0.0000 -0.7071
usemtl lambert1
s 1
f 1/1/1 19/2/2 18/3/3
f 2/4/4 20/5/5 19/2/2
f 3/6/6 21/7/7 20/8/5
f 4/9/8 22/10/9 21/7/7
f 5/11/10 23/12/11 22/10/9
f 6/13/12 24/14/13 23/15/11
f 7/16/14 25/17/15 24/14/13
f 9/18/16 25/17/15 8/19/17
f 10/20/18 26/21/19 9/18/16
f 11/22/20 27/23/21 10/20/18
f 12/24/22 28/25/23 11/26/20
f 13/27/24 29/28/25 12/24/22
f 14/29/26 30/30/27 13/27/24
f 15/31/28 31/32/29 14/33/26
f 16/34/30 32/35/31 15/31/28
f 17/36/32 33/37/33 16/34/30
f 17/36/32 18/3/3 34/38/32
f 17/39/34 13/40/34 9/41/34
f 53/42/35 61/43/35 65/44/35
f 18/45/35 36/46/35 35/47/35
f 19/48/35 37/49/35 36/46/35
f 20/50/35 38/51/35 37/49/35
f 21/52/35 39/53/35 38/51/35
f 22/54/35 40/55/35 39/53/35
f 23/56/35 41/57/35 40/55/35
f 24/58/35 42/59/35 41/57/35
f 26/60/35 42/59/35 25/61/35
f 27/62/35 43/63/35 26/60/35
f 28/64/35 44/65/35 27/62/35
f 29/66/35 45/67/35 28/64/35
f 30/68/35 46/69/35 29/66/35
f 31/70/35 47/71/35 30/68/35
f 32/72/35 48/73/35 31/70/35
f 33/74/35 49/75/35 32/72/35
f 34/76/35 50/77/35 33/74/35
f 34/76/35 35/47/35 51/78/35
f 36/79/36 52/80/36 35/81/36
f 37/82/37 53/83/37 36/79/37
f 38/84/38 54/85/38 37/86/38
f 39/87/39 55/88/39 38/84/39
f 40/89/40 56/90/40 39/87/40
f 41/91/41 57/92/41 40/93/41
f 42/94/42 58/95/42 41/91/42
f 43/96/43 59/97/43 42/94/43
f 44/98/44 60/99/44 43/96/44
f 45/100/45 61/101/45 44/98/45
f 46/102/46 62/103/46 45/104/46
f 47/105/47 63/106/47 46/102/47
f 48/107/48 64/108/48 47/105/48
f 49/109/49 65/110/49 48/111/49
f 50/112/50 66/113/50 49/109/50
f 51/114/51 67/115/51 50/112/51
f 35/81/52 68/116/52 51/114/52
f 70/117/53 76/118/53 72/119/53
f 78/120/54 84/121/54 80/122/54
f 73/123/43 82/124/43 75/125/43
f 79/126/55 71/127/55 77/128/55
f 78/129/35 77/130/35 75/131/35
f 70/132/34 69/133/34 83/134/34
f 70/135/56 71/127/56 69/136/56
f 73/123/57 76/137/57 74/138/57
f 78/139/58 79/126/58 77/128/58
f 82/124/59 84/140/59 81/141/59
f 1/1/1 2/4/4 19/2/2
f 2/4/4 3/142/6 20/5/5
f 3/6/6 4/9/8 21/7/7
f 4/9/8 5/11/10 22/10/9
f 5/11/10 6/143/12 23/12/11
f 6/13/12 7/16/14 24/14/13
f 7/16/14 8/19/17 25/17/15
f 9/18/16 26/21/19 25/17/15
f 10/20/18 27/23/21 26/21/19
f 11/22/20 28/144/23 27/23/21
f 12/24/22 29/28/25 28/25/23
f 13/27/24 30/30/27 29/28/25
f 14/29/26 31/145/29 30/30/27
f 15/31/28 32/35/31 31/32/29
f 16/34/30 33/37/33 32/35/31
f 17/36/32 34/38/32 33/37/33
f 17/36/32 1/1/1 18/3/3
f 2/146/34 1/147/34 3/148/34
f 1/147/34 17/39/34 3/148/34
f 17/39/34 16/149/34 15/150/34
f 15/150/34 14/151/34 17/39/34
f 14/151/34 13/40/34 17/39/34
f 13/40/34 12/152/34 11/153/34
f 11/153/34 10/154/34 13/40/34
f 10/154/34 9/41/34 13/40/34
f 9/41/34 8/155/34 7/156/34
f 7/156/34 6/157/34 5/158/34
f 5/158/34 4/159/34 3/148/34
f 9/41/34 7/156/34 5/158/34
f 5/158/34 3/148/34 9/41/34
f 3/148/34 17/39/34 9/41/34
f 68/160/35 52/161/35 53/42/35
f 53/42/35 54/162/35 55/163/35
f 55/163/35 56/164/35 57/165/35
f 57/165/35 58/166/35 59/167/35
f 59/167/35 60/168/35 57/165/35
f 60/168/35 61/43/35 57/165/35
f 61/43/35 62/169/35 65/44/35
f 62/169/35 63/170/35 65/44/35
f 63/170/35 64/171/35 65/44/35
f 65/44/35 66/172/35 67/173/35
f 67/173/35 68/160/35 65/44/35
f 68/160/35 53/42/35 65/44/35
f 53/42/35 55/163/35 61/43/35
f 55/163/35 57/165/35 61/43/35
f 18/45/35 19/48/35 36/46/35
f 19/48/35 20/50/35 37/49/35
f 20/50/35 21/52/35 38/51/35
f 21/52/35 22/54/35 39/53/35
f 22/54/35 23/56/35 40/55/35
f 23/56/35 24/58/35 41/57/35
f 24/58/35 25/61/35 42/59/35
f 26/60/35 43/63/35 42/59/35
f 27/62/35 44/65/35 43/63/35
f 28/64/35 45/67/35 44/65/35
f 29/66/35 46/69/35 45/67/35
f 30/68/35 47/71/35 46/69/35
f 31/70/35 48/73/35 47/71/35
f 32/72/35 49/75/35 48/73/35
f 33/74/35 50/77/35 49/75/35
f 34/76/35 51/78/35 50/77/35
f 34/76/35 18/45/35 35/47/35
f 36/79/36 53/83/36 52/80/36
f 37/82/37 54/174/37 53/83/37
f 38/84/38 55/88/38 54/85/38
f 39/87/39 56/90/39 55/88/39
f 40/89/40 57/175/40 56/90/40
f 41/91/41 58/95/41 57/92/41
f 42/94/42 59/97/42 58/95/42
f 43/96/43 60/99/43 59/97/43
f 44/98/44 61/101/44 60/99/44
f 45/100/45 62/176/45 61/101/45
f 46/102/46 63/106/46 62/103/46
f 47/105/47 64/108/47 63/106/47
f 48/107/48 65/177/48 64/108/48
f 49/109/49 66/113/49 65/110/49
f 50/112/50 67/115/50 66/113/50
f 51/114/51 68/116/51 67/115/51
f 35/81/52 52/80/52 68/116/52
f 70/117/53 74/178/53 76/118/53
f 78/120/54 81/179/54 84/121/54
f 73/123/43 83/180/43 82/124/43
f 79/126/55 69/136/55 71/127/55
f 77/130/35 71/181/35 72/182/35
f 72/182/35 76/183/35 77/130/35
f 76/183/35 75/131/35 77/130/35
f 75/131/35 82/184/35 81/185/35
f 81/185/35 78/129/35 75/131/35
f 69/133/34 79/186/34 80/187/34
f 80/187/34 84/188/34 69/133/34
f 84/188/34 83/134/34 69/133/34
f 83/134/34 73/189/34 74/190/34
f 74/190/34 70/132/34 83/134/34
f 70/135/56 72/191/56 71/127/56
f 73/123/57 75/125/57 76/137/57
f 78/139/58 80/192/58 79/126/58
f 82/124/59 83/180/59 84/140/59
