# Blender v2.93.0 OBJ File: ''
# www.blender.org
mtllib tapetito.mtl
o mat
v -20.142019 -0.075178 27.628546
v -19.807678 -0.075178 27.986221
v -19.807678 0.505422 27.628546
v 24.265766 -0.075178 27.986221
v 24.600107 -0.075178 27.628546
v 24.265766 0.505422 27.628546
v -20.142019 -0.075169 -27.628546
v -19.807678 0.505431 -27.628546
v -19.807678 -0.075169 -27.986221
v 24.600107 -0.075169 -27.628546
v 24.265766 -0.075169 -27.986221
v 24.265766 0.505431 -27.628546
v -19.807678 -0.655779 27.986221
v -20.142019 -0.655779 27.628546
v 24.600107 -0.655779 27.628546
v 24.265766 -0.655779 27.986221
v -20.142019 -0.655769 -27.628546
v -19.807678 -0.655769 -27.986221
v 24.265766 -0.655769 -27.986221
v 24.600107 -0.655769 -27.628546
vt 0.005361 0.990515
vt 0.000093 0.993626
vt 0.000244 0.010147
vt 0.005510 0.013241
vt 0.011448 0.006279
vt 0.008806 0.000115
vt 0.991084 0.000108
vt 0.988442 0.006269
vt 0.994380 0.013230
vt 0.999644 0.010137
vt 0.999908 0.993599
vt 0.994550 0.990487
vt 0.013097 0.988513
vt 0.013163 0.015245
vt 0.986728 0.015234
vt 0.986809 0.988503
vt 0.011351 0.997514
vt 0.988568 0.997518
vt 0.991243 1.003712
vt 0.008696 1.003688
vn 0.0000 0.0000 1.0000
vn 1.0000 0.0000 0.0000
vn 0.0000 0.0000 -1.0000
vn 0.0000 1.0000 0.0000
vn -0.6734 0.3878 0.6294
vn 0.6734 0.3878 0.6294
vn -0.6734 0.3878 -0.6294
vn 0.6734 0.3878 -0.6294
vn -0.8666 0.4990 0.0000
vn 0.0000 0.5245 0.8514
vn 0.8666 0.4990 0.0000
vn 0.0000 0.5245 -0.8514
vn -0.7305 0.0000 -0.6829
vn 0.7305 0.0000 -0.6829
vn 0.7305 0.0000 0.6829
vn -0.7305 0.0000 0.6829
vn -1.0000 0.0000 0.0000
usemtl Material.002
s 1
f 2/1/1 13/2/1 16/3/1 4/4/1
f 5/5/2 15/6/2 20/7/2 10/8/2
f 11/9/3 19/10/3 18/11/3 9/12/3
f 3/13/4 6/14/4 12/15/4 8/16/4
f 1/17/5 2/1/5 3/13/5
f 4/4/6 5/5/6 6/14/6
f 7/18/7 8/16/7 9/12/7
f 10/8/8 11/9/8 12/15/8
f 7/18/9 1/17/9 3/13/9 8/16/9
f 2/1/10 4/4/10 6/14/10 3/13/10
f 5/5/11 10/8/11 12/15/11 6/14/11
f 11/9/12 9/12/12 8/16/12 12/15/12
f 9/12/13 18/11/13 17/19/13 7/18/13
f 19/10/14 11/9/14 10/8/14 20/7/14
f 4/4/15 16/3/15 15/6/15 5/5/15
f 13/2/16 2/1/16 1/17/16 14/20/16
f 7/18/17 17/19/17 14/20/17 1/17/17
